<?xml version="1.0" encoding="UTF-8" ?>
<!DOCTYPE svg PUBLIC "-//W3C//DTD SVG 1.1//EN" "http://www.w3.org/Graphics/SVG/1.1/DTD/svg11.dtd">
<svg width="320pt" height="320pt" viewBox="0 0 320 320" version="1.1" xmlns="http://www.w3.org/2000/svg">
<path fill="#ffffff" d=" M 0.00 0.00 L 154.29 0.00 C 118.25 1.12 82.81 15.03 55.59 38.67 C 21.79 67.49 1.00 110.88 0.00 155.32 L 0.00 0.00 Z" />
<path fill="#000000" d=" M 154.29 0.00 L 164.80 0.00 C 201.36 0.86 237.37 15.01 264.89 39.08 C 298.44 67.93 319.06 111.20 320.00 155.48 L 320.00 164.67 C 319.17 196.50 308.51 227.97 289.78 253.71 C 269.45 281.90 239.76 303.30 206.43 313.23 C 193.25 317.36 179.50 319.44 165.73 320.00 L 154.31 320.00 C 122.55 318.98 91.20 308.13 65.61 289.29 C 37.95 269.10 16.91 239.87 7.00 207.06 C 2.61 193.30 0.48 178.89 0.00 164.46 L 0.00 155.32 C 1.00 110.88 21.79 67.49 55.59 38.67 C 82.81 15.03 118.25 1.12 154.29 0.00 Z" />
<path fill="#ffffff" d=" M 164.80 0.00 L 320.00 0.00 L 320.00 155.48 C 319.06 111.20 298.44 67.93 264.89 39.08 C 237.37 15.01 201.36 0.86 164.80 0.00 Z" />
<path fill="#fede58" d=" M 150.20 13.29 C 171.30 12.10 192.73 14.96 212.46 22.66 C 241.29 33.60 266.42 53.95 283.19 79.82 C 306.48 115.01 312.95 160.44 301.22 200.89 C 291.96 233.04 271.33 261.78 243.78 280.77 C 224.64 294.16 202.21 302.81 179.04 305.76 C 152.77 309.11 125.57 305.49 101.30 294.80 C 72.14 282.14 47.35 259.73 31.84 231.98 C 19.00 209.28 12.45 183.06 13.15 156.98 C 13.53 123.28 26.35 89.97 48.32 64.45 C 73.58 34.62 111.18 15.74 150.20 13.29 Z" />
<path fill="#000000" d=" M 42.59 84.45 C 49.21 76.54 59.95 73.20 70.02 73.75 C 80.98 73.78 91.15 79.72 98.28 87.75 C 112.72 104.38 115.89 129.12 108.07 149.44 C 83.07 149.43 58.07 149.80 33.07 149.33 C 29.14 141.18 28.04 131.96 28.44 123.01 C 28.67 109.07 33.61 95.15 42.59 84.45 Z" />
<path fill="#000000" d=" M 172.68 91.74 C 179.43 83.12 189.12 76.70 199.85 74.35 C 216.37 71.28 234.55 77.94 244.67 91.48 C 252.21 101.29 256.88 113.60 256.49 126.07 C 256.80 134.10 255.30 142.10 252.52 149.63 C 226.03 149.61 199.53 149.82 173.03 149.57 C 170.39 149.56 167.76 149.39 165.14 149.15 C 162.13 140.47 160.06 131.27 161.15 122.04 C 162.48 111.26 165.70 100.27 172.68 91.74 Z" />
<path fill="#ffffff" d=" M 50.29 88.32 C 58.32 80.83 71.07 79.30 80.75 84.33 C 80.92 85.84 79.36 86.41 78.46 87.28 C 75.24 89.73 73.02 93.37 72.13 97.30 C 71.23 102.36 73.03 107.72 76.53 111.44 C 80.68 115.67 87.31 116.72 92.82 114.93 C 96.11 113.91 98.41 111.25 101.10 109.28 C 103.35 113.45 103.78 118.31 103.99 122.96 C 103.97 128.92 104.43 135.02 102.60 140.78 C 99.06 141.39 95.47 141.40 91.89 141.47 C 77.24 141.60 62.59 141.60 47.94 141.46 C 44.73 141.42 41.51 141.36 38.34 140.86 C 36.09 132.79 36.03 124.23 36.86 115.94 C 39.15 105.94 42.42 95.39 50.29 88.32 Z" />
<path fill="#ffffff" d=" M 173.85 104.97 C 178.95 94.28 188.54 85.57 200.10 82.53 C 207.99 80.40 216.62 81.28 223.95 84.88 C 221.38 88.03 218.02 90.65 216.47 94.52 C 214.36 99.82 215.40 106.32 219.27 110.58 C 224.25 116.44 233.71 117.45 239.99 113.13 C 241.83 111.77 243.48 110.16 245.35 108.85 C 249.45 118.44 249.52 129.40 247.28 139.46 C 246.89 141.94 243.79 141.11 242.02 141.40 C 218.45 141.68 194.87 141.40 171.30 141.53 C 168.02 129.57 168.06 116.18 173.85 104.97 Z" />
<path fill="#ffffff" d=" M 0.00 164.46 C 0.48 178.89 2.61 193.30 7.00 207.06 C 16.91 239.87 37.95 269.10 65.61 289.29 C 91.20 308.13 122.55 318.98 154.31 320.00 L 0.00 320.00 L 0.00 164.46 Z" />
<path fill="#ffffff" d=" M 289.78 253.71 C 308.51 227.97 319.17 196.50 320.00 164.67 L 320.00 320.00 L 165.73 320.00 C 179.50 319.44 193.25 317.36 206.43 313.23 C 239.76 303.30 269.45 281.90 289.78 253.71 Z" />
<path fill="#000000" d=" M 38.17 176.77 C 108.10 176.76 178.03 176.79 247.96 176.76 C 255.62 194.45 256.77 215.31 249.30 233.26 C 242.12 250.46 227.53 263.11 212.41 273.31 C 192.12 287.96 166.02 291.87 141.54 290.30 C 119.74 286.66 98.99 276.27 83.49 260.43 C 67.15 243.95 56.63 222.34 51.45 199.86 C 50.42 195.02 49.00 190.16 49.20 185.16 C 45.63 185.05 42.06 184.99 38.50 184.85 C 38.42 182.15 38.31 179.46 38.17 176.77 Z" />
<path fill="#871945" d=" M 58.02 186.58 C 119.04 186.38 180.06 186.70 241.08 186.76 C 243.17 186.37 243.34 188.83 243.84 190.23 C 245.82 198.82 246.20 207.77 245.33 216.53 C 242.68 232.87 232.63 247.19 220.21 257.72 C 212.41 247.47 201.05 239.81 188.64 236.34 C 178.11 233.37 166.76 234.59 156.73 238.75 C 140.30 245.23 128.26 260.61 124.18 277.58 C 116.48 275.02 109.29 270.98 102.71 266.25 C 91.43 258.20 83.04 246.93 75.31 235.60 C 65.86 220.98 57.91 204.36 58.02 186.58 Z" />
<path fill="#f9bedd" d=" M 156.73 238.75 C 166.76 234.59 178.11 233.37 188.64 236.34 C 201.05 239.81 212.41 247.47 220.21 257.72 C 203.93 271.01 184.10 280.64 163.03 282.83 C 149.89 284.32 136.49 282.65 124.02 278.33 C 124.06 278.14 124.14 277.77 124.18 277.58 C 128.26 260.61 140.30 245.23 156.73 238.75 Z" />
</svg>
